<mxfile host="app.diagrams.net" agent="Mozilla/5.0 (Windows NT 10.0; Win64; x64) AppleWebKit/537.36 (KHTML, like Gecko) Chrome/131.0.0.0 Safari/537.36 Edg/131.0.0.0" version="25.0.1">
  <diagram id="R2lEEEUBdFMjLlhIrx00" name="Page-1">
    <mxGraphModel grid="1" page="1" gridSize="10" guides="1" tooltips="1" connect="1" arrows="1" fold="1" pageScale="1" pageWidth="850" pageHeight="1100" math="0" shadow="0" extFonts="Permanent Marker^https://fonts.googleapis.com/css?family=Permanent+Marker">
      <root>
        <mxCell id="0" />
        <mxCell id="1" parent="0" />
        <mxCell id="JOyG7jgRvMzVjS1u_pKQ-1" value="&lt;font style=&quot;font-size: 18px;&quot;&gt;User&lt;/font&gt;" style="rounded=0;whiteSpace=wrap;html=1;" vertex="1" parent="1">
          <mxGeometry x="1070" y="290" width="120" height="60" as="geometry" />
        </mxCell>
        <mxCell id="JOyG7jgRvMzVjS1u_pKQ-2" value="&lt;font style=&quot;font-size: 18px;&quot;&gt;SPSO&lt;/font&gt;" style="rounded=0;whiteSpace=wrap;html=1;" vertex="1" parent="1">
          <mxGeometry x="370" y="280" width="120" height="60" as="geometry" />
        </mxCell>
        <mxCell id="JOyG7jgRvMzVjS1u_pKQ-3" value="&lt;span style=&quot;font-size: 18px;&quot;&gt;Printer&amp;nbsp;&lt;/span&gt;&lt;div&gt;&lt;span style=&quot;font-size: 18px;&quot;&gt;(máy in)&lt;/span&gt;&lt;/div&gt;" style="rounded=0;whiteSpace=wrap;html=1;" vertex="1" parent="1">
          <mxGeometry x="342.5" y="760" width="150" height="60" as="geometry" />
        </mxCell>
        <mxCell id="JOyG7jgRvMzVjS1u_pKQ-4" value="&lt;span style=&quot;font-size: 18px;&quot;&gt;Document&lt;/span&gt;&lt;div&gt;&lt;span style=&quot;font-size: 18px;&quot;&gt;&amp;nbsp;(tài liệu)&lt;/span&gt;&lt;/div&gt;" style="rounded=0;whiteSpace=wrap;html=1;" vertex="1" parent="1">
          <mxGeometry x="1230" y="740" width="130" height="60" as="geometry" />
        </mxCell>
        <mxCell id="JOyG7jgRvMzVjS1u_pKQ-6" value="&lt;span style=&quot;font-size: 18px;&quot;&gt;Print Order&lt;/span&gt;&lt;div&gt;&lt;span style=&quot;font-size: 18px;&quot;&gt;&amp;nbsp; (đơn in)&lt;span style=&quot;white-space: pre;&quot;&gt;&#x9;&lt;/span&gt;&lt;/span&gt;&lt;/div&gt;" style="rounded=0;whiteSpace=wrap;html=1;" vertex="1" parent="1">
          <mxGeometry x="1580" y="600" width="120" height="60" as="geometry" />
        </mxCell>
        <mxCell id="JOyG7jgRvMzVjS1u_pKQ-7" value="&lt;span style=&quot;font-size: 18px;&quot;&gt;Page Order&lt;/span&gt;&lt;div&gt;&lt;span style=&quot;font-size: 18px;&quot;&gt;&amp;nbsp; &amp;nbsp; (đơn mua giấy)&lt;span style=&quot;white-space: pre;&quot;&gt;&#x9;&lt;/span&gt;&lt;/span&gt;&lt;/div&gt;" style="rounded=0;whiteSpace=wrap;html=1;" vertex="1" parent="1">
          <mxGeometry x="1680" y="310" width="170" height="60" as="geometry" />
        </mxCell>
        <mxCell id="JOyG7jgRvMzVjS1u_pKQ-8" value="&lt;font size=&quot;3&quot;&gt;Uid&lt;/font&gt;" style="ellipse;whiteSpace=wrap;html=1;" vertex="1" parent="1">
          <mxGeometry x="840" y="260" width="140" height="40" as="geometry" />
        </mxCell>
        <mxCell id="JOyG7jgRvMzVjS1u_pKQ-9" value="&lt;font size=&quot;3&quot;&gt;Name&lt;/font&gt;" style="ellipse;whiteSpace=wrap;html=1;" vertex="1" parent="1">
          <mxGeometry x="1050" y="170" width="140" height="40" as="geometry" />
        </mxCell>
        <mxCell id="JOyG7jgRvMzVjS1u_pKQ-10" value="&lt;font size=&quot;3&quot;&gt;HashedPassword&lt;/font&gt;" style="ellipse;whiteSpace=wrap;html=1;" vertex="1" parent="1">
          <mxGeometry x="1270" y="250" width="190" height="40" as="geometry" />
        </mxCell>
        <mxCell id="JOyG7jgRvMzVjS1u_pKQ-11" value="&lt;font size=&quot;3&quot;&gt;Type&lt;/font&gt;" style="ellipse;whiteSpace=wrap;html=1;" vertex="1" parent="1">
          <mxGeometry x="820" y="180" width="140" height="40" as="geometry" />
        </mxCell>
        <mxCell id="JOyG7jgRvMzVjS1u_pKQ-12" value="&lt;font size=&quot;3&quot;&gt;Email&lt;/font&gt;" style="ellipse;whiteSpace=wrap;html=1;" vertex="1" parent="1">
          <mxGeometry x="1220" y="190" width="140" height="40" as="geometry" />
        </mxCell>
        <mxCell id="JOyG7jgRvMzVjS1u_pKQ-13" value="&lt;font size=&quot;3&quot;&gt;Balance&lt;/font&gt;" style="ellipse;whiteSpace=wrap;html=1;" vertex="1" parent="1">
          <mxGeometry x="1150" y="120" width="140" height="40" as="geometry" />
        </mxCell>
        <mxCell id="JOyG7jgRvMzVjS1u_pKQ-14" value="&lt;font size=&quot;3&quot;&gt;LastUse&lt;/font&gt;" style="ellipse;whiteSpace=wrap;html=1;" vertex="1" parent="1">
          <mxGeometry x="950" y="110" width="140" height="40" as="geometry" />
        </mxCell>
        <mxCell id="JOyG7jgRvMzVjS1u_pKQ-17" value="&lt;font size=&quot;3&quot;&gt;Aid&lt;/font&gt;" style="ellipse;whiteSpace=wrap;html=1;" vertex="1" parent="1">
          <mxGeometry x="160" y="150" width="140" height="40" as="geometry" />
        </mxCell>
        <mxCell id="JOyG7jgRvMzVjS1u_pKQ-18" style="edgeStyle=orthogonalEdgeStyle;rounded=0;orthogonalLoop=1;jettySize=auto;html=1;exitX=0.5;exitY=1;exitDx=0;exitDy=0;" edge="1" parent="1" source="JOyG7jgRvMzVjS1u_pKQ-12" target="JOyG7jgRvMzVjS1u_pKQ-12">
          <mxGeometry relative="1" as="geometry" />
        </mxCell>
        <mxCell id="JOyG7jgRvMzVjS1u_pKQ-19" value="&lt;font size=&quot;3&quot;&gt;Name&lt;/font&gt;" style="ellipse;whiteSpace=wrap;html=1;" vertex="1" parent="1">
          <mxGeometry x="380" y="140" width="140" height="40" as="geometry" />
        </mxCell>
        <mxCell id="JOyG7jgRvMzVjS1u_pKQ-20" value="&lt;font size=&quot;3&quot;&gt;Username&lt;/font&gt;" style="ellipse;whiteSpace=wrap;html=1;" vertex="1" parent="1">
          <mxGeometry x="510" y="110" width="140" height="40" as="geometry" />
        </mxCell>
        <mxCell id="JOyG7jgRvMzVjS1u_pKQ-21" value="&lt;font size=&quot;3&quot;&gt;Email&lt;/font&gt;" style="ellipse;whiteSpace=wrap;html=1;" vertex="1" parent="1">
          <mxGeometry x="545" y="180" width="140" height="40" as="geometry" />
        </mxCell>
        <mxCell id="JOyG7jgRvMzVjS1u_pKQ-22" value="&lt;font size=&quot;3&quot;&gt;HashedPassword&lt;/font&gt;" style="ellipse;whiteSpace=wrap;html=1;" vertex="1" parent="1">
          <mxGeometry x="120" y="250" width="190" height="40" as="geometry" />
        </mxCell>
        <mxCell id="JOyG7jgRvMzVjS1u_pKQ-23" value="&lt;font size=&quot;3&quot;&gt;Phone&lt;/font&gt;" style="ellipse;whiteSpace=wrap;html=1;" vertex="1" parent="1">
          <mxGeometry x="260" y="110" width="140" height="40" as="geometry" />
        </mxCell>
        <mxCell id="JOyG7jgRvMzVjS1u_pKQ-24" value="&lt;font size=&quot;3&quot;&gt;Pid&lt;/font&gt;" style="ellipse;whiteSpace=wrap;html=1;" vertex="1" parent="1">
          <mxGeometry x="310" y="930" width="140" height="40" as="geometry" />
        </mxCell>
        <mxCell id="JOyG7jgRvMzVjS1u_pKQ-25" value="&lt;font size=&quot;3&quot;&gt;PName&lt;/font&gt;" style="ellipse;whiteSpace=wrap;html=1;" vertex="1" parent="1">
          <mxGeometry x="470" y="910" width="140" height="40" as="geometry" />
        </mxCell>
        <mxCell id="JOyG7jgRvMzVjS1u_pKQ-26" value="&lt;font size=&quot;3&quot;&gt;Brand&lt;/font&gt;" style="ellipse;whiteSpace=wrap;html=1;" vertex="1" parent="1">
          <mxGeometry x="217.5" y="1000" width="140" height="40" as="geometry" />
        </mxCell>
        <mxCell id="JOyG7jgRvMzVjS1u_pKQ-27" value="&lt;font size=&quot;3&quot;&gt;Model&lt;/font&gt;" style="ellipse;whiteSpace=wrap;html=1;" vertex="1" parent="1">
          <mxGeometry x="415" y="1000" width="140" height="40" as="geometry" />
        </mxCell>
        <mxCell id="JOyG7jgRvMzVjS1u_pKQ-28" value="&lt;font size=&quot;3&quot;&gt;Status&lt;/font&gt;" style="ellipse;whiteSpace=wrap;html=1;" vertex="1" parent="1">
          <mxGeometry x="590" y="940" width="140" height="40" as="geometry" />
        </mxCell>
        <mxCell id="JOyG7jgRvMzVjS1u_pKQ-29" value="&lt;font size=&quot;3&quot;&gt;Location&lt;/font&gt;" style="ellipse;whiteSpace=wrap;html=1;" vertex="1" parent="1">
          <mxGeometry x="132.5" y="880" width="140" height="40" as="geometry" />
        </mxCell>
        <mxCell id="JOyG7jgRvMzVjS1u_pKQ-30" value="&lt;font size=&quot;3&quot;&gt;Did&lt;/font&gt;" style="ellipse;whiteSpace=wrap;html=1;" vertex="1" parent="1">
          <mxGeometry x="1060" y="860" width="140" height="40" as="geometry" />
        </mxCell>
        <mxCell id="JOyG7jgRvMzVjS1u_pKQ-31" value="&lt;font size=&quot;3&quot;&gt;DName&lt;/font&gt;" style="ellipse;whiteSpace=wrap;html=1;" vertex="1" parent="1">
          <mxGeometry x="1260" y="900" width="140" height="40" as="geometry" />
        </mxCell>
        <mxCell id="JOyG7jgRvMzVjS1u_pKQ-32" value="&lt;font size=&quot;3&quot;&gt;Extention&lt;/font&gt;" style="ellipse;whiteSpace=wrap;html=1;" vertex="1" parent="1">
          <mxGeometry x="1100" y="930" width="140" height="40" as="geometry" />
        </mxCell>
        <mxCell id="JOyG7jgRvMzVjS1u_pKQ-33" value="&lt;font size=&quot;3&quot;&gt;NumberOfPage&lt;/font&gt;" style="ellipse;whiteSpace=wrap;html=1;" vertex="1" parent="1">
          <mxGeometry x="1400" y="850" width="140" height="40" as="geometry" />
        </mxCell>
        <mxCell id="JOyG7jgRvMzVjS1u_pKQ-34" value="&lt;font size=&quot;3&quot;&gt;Oid&lt;/font&gt;" style="ellipse;whiteSpace=wrap;html=1;" vertex="1" parent="1">
          <mxGeometry x="1880" y="530" width="140" height="40" as="geometry" />
        </mxCell>
        <mxCell id="JOyG7jgRvMzVjS1u_pKQ-35" value="&lt;font size=&quot;3&quot;&gt;printConfiguration&lt;/font&gt;" style="ellipse;whiteSpace=wrap;html=1;" vertex="1" parent="1">
          <mxGeometry x="1640" y="440" width="160" height="40" as="geometry" />
        </mxCell>
        <mxCell id="JOyG7jgRvMzVjS1u_pKQ-36" value="&lt;font size=&quot;3&quot;&gt;StartTime&lt;/font&gt;" style="ellipse;whiteSpace=wrap;html=1;" vertex="1" parent="1">
          <mxGeometry x="1800" y="590" width="140" height="40" as="geometry" />
        </mxCell>
        <mxCell id="JOyG7jgRvMzVjS1u_pKQ-37" value="&lt;font size=&quot;3&quot;&gt;EndTime&lt;/font&gt;" style="ellipse;whiteSpace=wrap;html=1;" vertex="1" parent="1">
          <mxGeometry x="1732" y="500" width="140" height="40" as="geometry" />
        </mxCell>
        <mxCell id="JOyG7jgRvMzVjS1u_pKQ-38" value="&lt;font size=&quot;3&quot;&gt;Status&lt;/font&gt;" style="ellipse;whiteSpace=wrap;html=1;" vertex="1" parent="1">
          <mxGeometry x="1880" y="640" width="140" height="40" as="geometry" />
        </mxCell>
        <mxCell id="JOyG7jgRvMzVjS1u_pKQ-39" value="&lt;font size=&quot;3&quot;&gt;NumberOfPage&lt;/font&gt;" style="ellipse;whiteSpace=wrap;html=1;" vertex="1" parent="1">
          <mxGeometry x="1790" y="685" width="140" height="40" as="geometry" />
        </mxCell>
        <mxCell id="JOyG7jgRvMzVjS1u_pKQ-40" value="&lt;font size=&quot;3&quot;&gt;Poid&lt;/font&gt;" style="ellipse;whiteSpace=wrap;html=1;" vertex="1" parent="1">
          <mxGeometry x="1780" y="200" width="140" height="40" as="geometry" />
        </mxCell>
        <mxCell id="JOyG7jgRvMzVjS1u_pKQ-41" value="&lt;font size=&quot;3&quot;&gt;BuyTime&lt;/font&gt;" style="ellipse;whiteSpace=wrap;html=1;" vertex="1" parent="1">
          <mxGeometry x="1880" y="260" width="140" height="40" as="geometry" />
        </mxCell>
        <mxCell id="JOyG7jgRvMzVjS1u_pKQ-42" value="&lt;font size=&quot;3&quot;&gt;NumberOfPage&lt;/font&gt;" style="ellipse;whiteSpace=wrap;html=1;" vertex="1" parent="1">
          <mxGeometry x="1880" y="350" width="140" height="40" as="geometry" />
        </mxCell>
        <mxCell id="JOyG7jgRvMzVjS1u_pKQ-43" value="&lt;font size=&quot;3&quot;&gt;Price&lt;/font&gt;" style="ellipse;whiteSpace=wrap;html=1;" vertex="1" parent="1">
          <mxGeometry x="1680" y="160" width="140" height="40" as="geometry" />
        </mxCell>
        <mxCell id="JOyG7jgRvMzVjS1u_pKQ-44" value="&lt;font size=&quot;3&quot;&gt;Status&lt;/font&gt;" style="ellipse;whiteSpace=wrap;html=1;" vertex="1" parent="1">
          <mxGeometry x="1550" y="230" width="140" height="40" as="geometry" />
        </mxCell>
        <mxCell id="JOyG7jgRvMzVjS1u_pKQ-47" value="&lt;div&gt;&lt;span style=&quot;font-size: 18px;&quot;&gt;Respone&lt;/span&gt;&lt;/div&gt;&lt;div&gt;&lt;span style=&quot;font-size: 18px;&quot;&gt;&amp;nbsp;(Phản hồi)&lt;/span&gt;&lt;/div&gt;" style="rounded=0;whiteSpace=wrap;html=1;" vertex="1" parent="1">
          <mxGeometry x="625" y="430" width="130" height="60" as="geometry" />
        </mxCell>
        <mxCell id="JOyG7jgRvMzVjS1u_pKQ-48" value="&lt;font size=&quot;3&quot;&gt;Rid&lt;/font&gt;" style="ellipse;whiteSpace=wrap;html=1;" vertex="1" parent="1">
          <mxGeometry x="770" y="530" width="140" height="40" as="geometry" />
        </mxCell>
        <mxCell id="JOyG7jgRvMzVjS1u_pKQ-49" value="&lt;font size=&quot;3&quot;&gt;Title&lt;/font&gt;" style="ellipse;whiteSpace=wrap;html=1;" vertex="1" parent="1">
          <mxGeometry x="730" y="600" width="140" height="40" as="geometry" />
        </mxCell>
        <mxCell id="JOyG7jgRvMzVjS1u_pKQ-50" value="&lt;font size=&quot;3&quot;&gt;Content&lt;/font&gt;" style="ellipse;whiteSpace=wrap;html=1;" vertex="1" parent="1">
          <mxGeometry x="615" y="540" width="140" height="40" as="geometry" />
        </mxCell>
        <mxCell id="JOyG7jgRvMzVjS1u_pKQ-51" value="&lt;font size=&quot;3&quot;&gt;Rating&lt;/font&gt;" style="ellipse;whiteSpace=wrap;html=1;" vertex="1" parent="1">
          <mxGeometry x="490" y="610" width="140" height="40" as="geometry" />
        </mxCell>
        <mxCell id="JOyG7jgRvMzVjS1u_pKQ-52" value="&lt;font size=&quot;3&quot;&gt;Responder&lt;/font&gt;" style="ellipse;whiteSpace=wrap;html=1;" vertex="1" parent="1">
          <mxGeometry x="455" y="520" width="140" height="40" as="geometry" />
        </mxCell>
        <mxCell id="JOyG7jgRvMzVjS1u_pKQ-53" value="" style="endArrow=none;html=1;rounded=0;entryX=0.34;entryY=0.925;entryDx=0;entryDy=0;entryPerimeter=0;" edge="1" parent="1" source="JOyG7jgRvMzVjS1u_pKQ-1" target="JOyG7jgRvMzVjS1u_pKQ-12">
          <mxGeometry width="50" height="50" relative="1" as="geometry">
            <mxPoint x="1190" y="300" as="sourcePoint" />
            <mxPoint x="1240" y="250" as="targetPoint" />
          </mxGeometry>
        </mxCell>
        <mxCell id="JOyG7jgRvMzVjS1u_pKQ-54" value="" style="endArrow=none;html=1;rounded=0;entryX=0.455;entryY=1.008;entryDx=0;entryDy=0;entryPerimeter=0;exitX=0.644;exitY=0.006;exitDx=0;exitDy=0;exitPerimeter=0;" edge="1" parent="1" source="JOyG7jgRvMzVjS1u_pKQ-1" target="JOyG7jgRvMzVjS1u_pKQ-13">
          <mxGeometry width="50" height="50" relative="1" as="geometry">
            <mxPoint x="1152" y="303" as="sourcePoint" />
            <mxPoint x="1230" y="230" as="targetPoint" />
          </mxGeometry>
        </mxCell>
        <mxCell id="JOyG7jgRvMzVjS1u_pKQ-55" value="" style="endArrow=none;html=1;rounded=0;entryX=0.5;entryY=1;entryDx=0;entryDy=0;exitX=0.5;exitY=0;exitDx=0;exitDy=0;" edge="1" parent="1" source="JOyG7jgRvMzVjS1u_pKQ-1" target="JOyG7jgRvMzVjS1u_pKQ-9">
          <mxGeometry width="50" height="50" relative="1" as="geometry">
            <mxPoint x="1127" y="300" as="sourcePoint" />
            <mxPoint x="1205" y="227" as="targetPoint" />
          </mxGeometry>
        </mxCell>
        <mxCell id="JOyG7jgRvMzVjS1u_pKQ-56" value="" style="endArrow=none;html=1;rounded=0;entryX=0.445;entryY=1.025;entryDx=0;entryDy=0;entryPerimeter=0;exitX=0.353;exitY=0.017;exitDx=0;exitDy=0;exitPerimeter=0;" edge="1" parent="1" source="JOyG7jgRvMzVjS1u_pKQ-1" target="JOyG7jgRvMzVjS1u_pKQ-14">
          <mxGeometry width="50" height="50" relative="1" as="geometry">
            <mxPoint x="1120" y="296" as="sourcePoint" />
            <mxPoint x="1090" y="210" as="targetPoint" />
          </mxGeometry>
        </mxCell>
        <mxCell id="JOyG7jgRvMzVjS1u_pKQ-57" value="" style="endArrow=none;html=1;rounded=0;entryX=0.96;entryY=0.592;entryDx=0;entryDy=0;entryPerimeter=0;exitX=0.125;exitY=0.006;exitDx=0;exitDy=0;exitPerimeter=0;" edge="1" parent="1" source="JOyG7jgRvMzVjS1u_pKQ-1" target="JOyG7jgRvMzVjS1u_pKQ-11">
          <mxGeometry width="50" height="50" relative="1" as="geometry">
            <mxPoint x="1090" y="320" as="sourcePoint" />
            <mxPoint x="990" y="170" as="targetPoint" />
          </mxGeometry>
        </mxCell>
        <mxCell id="JOyG7jgRvMzVjS1u_pKQ-58" value="" style="endArrow=none;html=1;rounded=0;exitX=0;exitY=0.25;exitDx=0;exitDy=0;" edge="1" parent="1" source="JOyG7jgRvMzVjS1u_pKQ-1" target="JOyG7jgRvMzVjS1u_pKQ-8">
          <mxGeometry width="50" height="50" relative="1" as="geometry">
            <mxPoint x="1071" y="346" as="sourcePoint" />
            <mxPoint x="940" y="250" as="targetPoint" />
          </mxGeometry>
        </mxCell>
        <mxCell id="JOyG7jgRvMzVjS1u_pKQ-59" value="" style="endArrow=none;html=1;rounded=0;exitX=1;exitY=0.25;exitDx=0;exitDy=0;" edge="1" parent="1" source="JOyG7jgRvMzVjS1u_pKQ-1" target="JOyG7jgRvMzVjS1u_pKQ-10">
          <mxGeometry width="50" height="50" relative="1" as="geometry">
            <mxPoint x="1072" y="351.5" as="sourcePoint" />
            <mxPoint x="968" y="328.5" as="targetPoint" />
          </mxGeometry>
        </mxCell>
        <mxCell id="JOyG7jgRvMzVjS1u_pKQ-61" value="" style="endArrow=none;html=1;rounded=0;entryX=0;entryY=0.25;entryDx=0;entryDy=0;exitX=0.588;exitY=0.992;exitDx=0;exitDy=0;exitPerimeter=0;" edge="1" parent="1" source="JOyG7jgRvMzVjS1u_pKQ-22" target="JOyG7jgRvMzVjS1u_pKQ-2">
          <mxGeometry width="50" height="50" relative="1" as="geometry">
            <mxPoint x="60" y="383" as="sourcePoint" />
            <mxPoint x="154" y="320" as="targetPoint" />
          </mxGeometry>
        </mxCell>
        <mxCell id="JOyG7jgRvMzVjS1u_pKQ-62" style="edgeStyle=orthogonalEdgeStyle;rounded=0;orthogonalLoop=1;jettySize=auto;html=1;exitX=0.5;exitY=1;exitDx=0;exitDy=0;" edge="1" parent="1" source="JOyG7jgRvMzVjS1u_pKQ-23" target="JOyG7jgRvMzVjS1u_pKQ-23">
          <mxGeometry relative="1" as="geometry" />
        </mxCell>
        <mxCell id="JOyG7jgRvMzVjS1u_pKQ-63" value="" style="endArrow=none;html=1;rounded=0;entryX=0.083;entryY=0;entryDx=0;entryDy=0;exitX=0.631;exitY=1.008;exitDx=0;exitDy=0;exitPerimeter=0;entryPerimeter=0;" edge="1" parent="1" source="JOyG7jgRvMzVjS1u_pKQ-17" target="JOyG7jgRvMzVjS1u_pKQ-2">
          <mxGeometry width="50" height="50" relative="1" as="geometry">
            <mxPoint x="302" y="252.5" as="sourcePoint" />
            <mxPoint x="400" y="287.5" as="targetPoint" />
          </mxGeometry>
        </mxCell>
        <mxCell id="JOyG7jgRvMzVjS1u_pKQ-64" value="" style="endArrow=none;html=1;rounded=0;entryX=0.25;entryY=0;entryDx=0;entryDy=0;exitX=0.5;exitY=1;exitDx=0;exitDy=0;" edge="1" parent="1" source="JOyG7jgRvMzVjS1u_pKQ-23" target="JOyG7jgRvMzVjS1u_pKQ-2">
          <mxGeometry width="50" height="50" relative="1" as="geometry">
            <mxPoint x="284" y="190" as="sourcePoint" />
            <mxPoint x="376" y="310" as="targetPoint" />
          </mxGeometry>
        </mxCell>
        <mxCell id="JOyG7jgRvMzVjS1u_pKQ-65" value="" style="endArrow=none;html=1;rounded=0;entryX=0.392;entryY=0.017;entryDx=0;entryDy=0;entryPerimeter=0;" edge="1" parent="1" source="JOyG7jgRvMzVjS1u_pKQ-19" target="JOyG7jgRvMzVjS1u_pKQ-2">
          <mxGeometry width="50" height="50" relative="1" as="geometry">
            <mxPoint x="390" y="145" as="sourcePoint" />
            <mxPoint x="430" y="315" as="targetPoint" />
          </mxGeometry>
        </mxCell>
        <mxCell id="JOyG7jgRvMzVjS1u_pKQ-66" value="" style="endArrow=none;html=1;rounded=0;exitX=0.5;exitY=1;exitDx=0;exitDy=0;entryX=0.5;entryY=0;entryDx=0;entryDy=0;" edge="1" parent="1" source="JOyG7jgRvMzVjS1u_pKQ-20" target="JOyG7jgRvMzVjS1u_pKQ-2">
          <mxGeometry width="50" height="50" relative="1" as="geometry">
            <mxPoint x="451" y="220" as="sourcePoint" />
            <mxPoint x="410" y="310" as="targetPoint" />
          </mxGeometry>
        </mxCell>
        <mxCell id="JOyG7jgRvMzVjS1u_pKQ-67" value="" style="endArrow=none;html=1;rounded=0;exitX=0;exitY=1;exitDx=0;exitDy=0;entryX=1;entryY=0.25;entryDx=0;entryDy=0;" edge="1" parent="1" source="JOyG7jgRvMzVjS1u_pKQ-21" target="JOyG7jgRvMzVjS1u_pKQ-2">
          <mxGeometry width="50" height="50" relative="1" as="geometry">
            <mxPoint x="650" y="170" as="sourcePoint" />
            <mxPoint x="480" y="330" as="targetPoint" />
          </mxGeometry>
        </mxCell>
        <mxCell id="JOyG7jgRvMzVjS1u_pKQ-68" value="" style="endArrow=none;html=1;rounded=0;exitX=0.365;exitY=0.908;exitDx=0;exitDy=0;exitPerimeter=0;" edge="1" parent="1" source="JOyG7jgRvMzVjS1u_pKQ-35" target="JOyG7jgRvMzVjS1u_pKQ-6">
          <mxGeometry width="50" height="50" relative="1" as="geometry">
            <mxPoint x="1500" y="529" as="sourcePoint" />
            <mxPoint x="1424" y="610" as="targetPoint" />
          </mxGeometry>
        </mxCell>
        <mxCell id="JOyG7jgRvMzVjS1u_pKQ-69" value="" style="endArrow=none;html=1;rounded=0;exitX=0.055;exitY=0.792;exitDx=0;exitDy=0;exitPerimeter=0;" edge="1" parent="1" source="JOyG7jgRvMzVjS1u_pKQ-37" target="JOyG7jgRvMzVjS1u_pKQ-6">
          <mxGeometry width="50" height="50" relative="1" as="geometry">
            <mxPoint x="1630" y="516" as="sourcePoint" />
            <mxPoint x="1670" y="610" as="targetPoint" />
          </mxGeometry>
        </mxCell>
        <mxCell id="JOyG7jgRvMzVjS1u_pKQ-70" value="" style="endArrow=none;html=1;rounded=0;exitX=0;exitY=0.5;exitDx=0;exitDy=0;entryX=0.997;entryY=0.106;entryDx=0;entryDy=0;entryPerimeter=0;" edge="1" parent="1" source="JOyG7jgRvMzVjS1u_pKQ-34" target="JOyG7jgRvMzVjS1u_pKQ-6">
          <mxGeometry width="50" height="50" relative="1" as="geometry">
            <mxPoint x="1750" y="542" as="sourcePoint" />
            <mxPoint x="1680" y="620" as="targetPoint" />
          </mxGeometry>
        </mxCell>
        <mxCell id="JOyG7jgRvMzVjS1u_pKQ-72" value="" style="endArrow=none;html=1;rounded=0;entryX=1;entryY=0.5;entryDx=0;entryDy=0;exitX=0;exitY=0.5;exitDx=0;exitDy=0;" edge="1" parent="1" source="JOyG7jgRvMzVjS1u_pKQ-36" target="JOyG7jgRvMzVjS1u_pKQ-6">
          <mxGeometry width="50" height="50" relative="1" as="geometry">
            <mxPoint x="1780" y="610" as="sourcePoint" />
            <mxPoint x="1720" y="640" as="targetPoint" />
          </mxGeometry>
        </mxCell>
        <mxCell id="JOyG7jgRvMzVjS1u_pKQ-73" value="" style="endArrow=none;html=1;rounded=0;entryX=1.019;entryY=0.606;entryDx=0;entryDy=0;exitX=0.055;exitY=0.408;exitDx=0;exitDy=0;entryPerimeter=0;exitPerimeter=0;" edge="1" parent="1" source="JOyG7jgRvMzVjS1u_pKQ-38" target="JOyG7jgRvMzVjS1u_pKQ-6">
          <mxGeometry width="50" height="50" relative="1" as="geometry">
            <mxPoint x="1810" y="625" as="sourcePoint" />
            <mxPoint x="1720" y="655" as="targetPoint" />
          </mxGeometry>
        </mxCell>
        <mxCell id="JOyG7jgRvMzVjS1u_pKQ-74" value="" style="endArrow=none;html=1;rounded=0;entryX=0.992;entryY=0.883;entryDx=0;entryDy=0;exitX=0.402;exitY=0.042;exitDx=0;exitDy=0;entryPerimeter=0;exitPerimeter=0;" edge="1" parent="1" source="JOyG7jgRvMzVjS1u_pKQ-39" target="JOyG7jgRvMzVjS1u_pKQ-6">
          <mxGeometry width="50" height="50" relative="1" as="geometry">
            <mxPoint x="1898" y="666" as="sourcePoint" />
            <mxPoint x="1722" y="656" as="targetPoint" />
          </mxGeometry>
        </mxCell>
        <mxCell id="JOyG7jgRvMzVjS1u_pKQ-75" value="" style="endArrow=none;html=1;rounded=0;exitX=0.669;exitY=0.114;exitDx=0;exitDy=0;exitPerimeter=0;entryX=0.021;entryY=0.632;entryDx=0;entryDy=0;entryPerimeter=0;" edge="1" parent="1" source="JOyG7jgRvMzVjS1u_pKQ-52" target="JOyG7jgRvMzVjS1u_pKQ-47">
          <mxGeometry width="50" height="50" relative="1" as="geometry">
            <mxPoint x="670" y="350" as="sourcePoint" />
            <mxPoint x="720" y="300" as="targetPoint" />
          </mxGeometry>
        </mxCell>
        <mxCell id="JOyG7jgRvMzVjS1u_pKQ-76" value="" style="endArrow=none;html=1;rounded=0;exitX=0.454;exitY=0.036;exitDx=0;exitDy=0;exitPerimeter=0;entryX=0.25;entryY=1;entryDx=0;entryDy=0;" edge="1" parent="1" source="JOyG7jgRvMzVjS1u_pKQ-51" target="JOyG7jgRvMzVjS1u_pKQ-47">
          <mxGeometry width="50" height="50" relative="1" as="geometry">
            <mxPoint x="570" y="503.5" as="sourcePoint" />
            <mxPoint x="669" y="476.5" as="targetPoint" />
          </mxGeometry>
        </mxCell>
        <mxCell id="JOyG7jgRvMzVjS1u_pKQ-77" value="" style="endArrow=none;html=1;rounded=0;entryX=0.5;entryY=1;entryDx=0;entryDy=0;" edge="1" parent="1" source="JOyG7jgRvMzVjS1u_pKQ-50" target="JOyG7jgRvMzVjS1u_pKQ-47">
          <mxGeometry width="50" height="50" relative="1" as="geometry">
            <mxPoint x="544" y="581" as="sourcePoint" />
            <mxPoint x="630" y="490" as="targetPoint" />
          </mxGeometry>
        </mxCell>
        <mxCell id="JOyG7jgRvMzVjS1u_pKQ-78" value="" style="endArrow=none;html=1;rounded=0;entryX=0.642;entryY=1.038;entryDx=0;entryDy=0;entryPerimeter=0;exitX=0.5;exitY=0;exitDx=0;exitDy=0;" edge="1" parent="1" source="JOyG7jgRvMzVjS1u_pKQ-49" target="JOyG7jgRvMzVjS1u_pKQ-47">
          <mxGeometry width="50" height="50" relative="1" as="geometry">
            <mxPoint x="721" y="523" as="sourcePoint" />
            <mxPoint x="730" y="480" as="targetPoint" />
          </mxGeometry>
        </mxCell>
        <mxCell id="JOyG7jgRvMzVjS1u_pKQ-79" value="" style="endArrow=none;html=1;rounded=0;entryX=0.75;entryY=1;entryDx=0;entryDy=0;exitX=0.5;exitY=0;exitDx=0;exitDy=0;" edge="1" parent="1" source="JOyG7jgRvMzVjS1u_pKQ-48" target="JOyG7jgRvMzVjS1u_pKQ-47">
          <mxGeometry width="50" height="50" relative="1" as="geometry">
            <mxPoint x="780" y="545" as="sourcePoint" />
            <mxPoint x="741" y="480" as="targetPoint" />
          </mxGeometry>
        </mxCell>
        <mxCell id="JOyG7jgRvMzVjS1u_pKQ-81" value="" style="endArrow=none;html=1;rounded=0;exitX=0.607;exitY=0;exitDx=0;exitDy=0;exitPerimeter=0;entryX=0.25;entryY=1;entryDx=0;entryDy=0;" edge="1" parent="1" source="JOyG7jgRvMzVjS1u_pKQ-24" target="JOyG7jgRvMzVjS1u_pKQ-3">
          <mxGeometry width="50" height="50" relative="1" as="geometry">
            <mxPoint x="400" y="930" as="sourcePoint" />
            <mxPoint x="450" y="880" as="targetPoint" />
          </mxGeometry>
        </mxCell>
        <mxCell id="JOyG7jgRvMzVjS1u_pKQ-82" value="" style="endArrow=none;html=1;rounded=0;exitX=0.546;exitY=0;exitDx=0;exitDy=0;exitPerimeter=0;entryX=0.16;entryY=0.969;entryDx=0;entryDy=0;entryPerimeter=0;" edge="1" parent="1" source="JOyG7jgRvMzVjS1u_pKQ-26" target="JOyG7jgRvMzVjS1u_pKQ-3">
          <mxGeometry width="50" height="50" relative="1" as="geometry">
            <mxPoint x="262.5" y="897.5" as="sourcePoint" />
            <mxPoint x="267.5" y="822.5" as="targetPoint" />
          </mxGeometry>
        </mxCell>
        <mxCell id="JOyG7jgRvMzVjS1u_pKQ-83" value="" style="endArrow=none;html=1;rounded=0;exitX=0.945;exitY=0.685;exitDx=0;exitDy=0;exitPerimeter=0;entryX=0.025;entryY=0.887;entryDx=0;entryDy=0;entryPerimeter=0;" edge="1" parent="1" source="JOyG7jgRvMzVjS1u_pKQ-29" target="JOyG7jgRvMzVjS1u_pKQ-3">
          <mxGeometry width="50" height="50" relative="1" as="geometry">
            <mxPoint x="256" y="990" as="sourcePoint" />
            <mxPoint x="374" y="828" as="targetPoint" />
          </mxGeometry>
        </mxCell>
        <mxCell id="JOyG7jgRvMzVjS1u_pKQ-84" value="" style="endArrow=none;html=1;rounded=0;entryX=0.75;entryY=1;entryDx=0;entryDy=0;" edge="1" parent="1" source="JOyG7jgRvMzVjS1u_pKQ-25" target="JOyG7jgRvMzVjS1u_pKQ-3">
          <mxGeometry width="50" height="50" relative="1" as="geometry">
            <mxPoint x="435" y="895" as="sourcePoint" />
            <mxPoint x="440" y="820" as="targetPoint" />
          </mxGeometry>
        </mxCell>
        <mxCell id="JOyG7jgRvMzVjS1u_pKQ-85" value="" style="endArrow=none;html=1;rounded=0;entryX=0.5;entryY=1;entryDx=0;entryDy=0;exitX=0.5;exitY=0;exitDx=0;exitDy=0;" edge="1" parent="1" source="JOyG7jgRvMzVjS1u_pKQ-27" target="JOyG7jgRvMzVjS1u_pKQ-3">
          <mxGeometry width="50" height="50" relative="1" as="geometry">
            <mxPoint x="477.5" y="891" as="sourcePoint" />
            <mxPoint x="426.5" y="840" as="targetPoint" />
          </mxGeometry>
        </mxCell>
        <mxCell id="JOyG7jgRvMzVjS1u_pKQ-86" value="" style="endArrow=none;html=1;rounded=0;exitX=0.378;exitY=-0.071;exitDx=0;exitDy=0;entryX=0.982;entryY=0.623;entryDx=0;entryDy=0;entryPerimeter=0;exitPerimeter=0;" edge="1" parent="1" source="JOyG7jgRvMzVjS1u_pKQ-28" target="JOyG7jgRvMzVjS1u_pKQ-3">
          <mxGeometry width="50" height="50" relative="1" as="geometry">
            <mxPoint x="580" y="840" as="sourcePoint" />
            <mxPoint x="490" y="790" as="targetPoint" />
          </mxGeometry>
        </mxCell>
        <mxCell id="JOyG7jgRvMzVjS1u_pKQ-87" value="" style="endArrow=none;html=1;rounded=0;entryX=0.601;entryY=0.027;entryDx=0;entryDy=0;entryPerimeter=0;" edge="1" parent="1" source="JOyG7jgRvMzVjS1u_pKQ-4" target="JOyG7jgRvMzVjS1u_pKQ-31">
          <mxGeometry width="50" height="50" relative="1" as="geometry">
            <mxPoint x="1360" y="970" as="sourcePoint" />
            <mxPoint x="1410" y="920" as="targetPoint" />
          </mxGeometry>
        </mxCell>
        <mxCell id="JOyG7jgRvMzVjS1u_pKQ-88" value="" style="endArrow=none;html=1;rounded=0;" edge="1" parent="1" source="JOyG7jgRvMzVjS1u_pKQ-4" target="JOyG7jgRvMzVjS1u_pKQ-30">
          <mxGeometry width="50" height="50" relative="1" as="geometry">
            <mxPoint x="1191" y="820" as="sourcePoint" />
            <mxPoint x="1260" y="871" as="targetPoint" />
          </mxGeometry>
        </mxCell>
        <mxCell id="JOyG7jgRvMzVjS1u_pKQ-89" value="" style="endArrow=none;html=1;rounded=0;exitX=0.5;exitY=1;exitDx=0;exitDy=0;" edge="1" parent="1" source="JOyG7jgRvMzVjS1u_pKQ-4" target="JOyG7jgRvMzVjS1u_pKQ-32">
          <mxGeometry width="50" height="50" relative="1" as="geometry">
            <mxPoint x="1225" y="820" as="sourcePoint" />
            <mxPoint x="1190" y="920" as="targetPoint" />
          </mxGeometry>
        </mxCell>
        <mxCell id="JOyG7jgRvMzVjS1u_pKQ-90" value="" style="endArrow=none;html=1;rounded=0;entryX=0.5;entryY=0;entryDx=0;entryDy=0;" edge="1" parent="1" source="JOyG7jgRvMzVjS1u_pKQ-4" target="JOyG7jgRvMzVjS1u_pKQ-33">
          <mxGeometry width="50" height="50" relative="1" as="geometry">
            <mxPoint x="1350" y="799" as="sourcePoint" />
            <mxPoint x="1406" y="850" as="targetPoint" />
          </mxGeometry>
        </mxCell>
        <mxCell id="JOyG7jgRvMzVjS1u_pKQ-92" value="" style="endArrow=none;html=1;rounded=0;exitX=0.312;exitY=0.933;exitDx=0;exitDy=0;exitPerimeter=0;entryX=0.706;entryY=0.041;entryDx=0;entryDy=0;entryPerimeter=0;" edge="1" parent="1" source="JOyG7jgRvMzVjS1u_pKQ-40" target="JOyG7jgRvMzVjS1u_pKQ-7">
          <mxGeometry width="50" height="50" relative="1" as="geometry">
            <mxPoint x="1765" y="395" as="sourcePoint" />
            <mxPoint x="1815" y="345" as="targetPoint" />
          </mxGeometry>
        </mxCell>
        <mxCell id="JOyG7jgRvMzVjS1u_pKQ-95" value="" style="endArrow=none;html=1;rounded=0;exitX=0.286;exitY=1;exitDx=0;exitDy=0;exitPerimeter=0;entryX=1;entryY=0.25;entryDx=0;entryDy=0;" edge="1" parent="1" source="JOyG7jgRvMzVjS1u_pKQ-41" target="JOyG7jgRvMzVjS1u_pKQ-7">
          <mxGeometry width="50" height="50" relative="1" as="geometry">
            <mxPoint x="1830" y="427.5" as="sourcePoint" />
            <mxPoint x="1799" y="352.5" as="targetPoint" />
          </mxGeometry>
        </mxCell>
        <mxCell id="JOyG7jgRvMzVjS1u_pKQ-97" value="" style="endArrow=none;html=1;rounded=0;exitX=0.603;exitY=1;exitDx=0;exitDy=0;exitPerimeter=0;entryX=0.17;entryY=0.006;entryDx=0;entryDy=0;entryPerimeter=0;" edge="1" parent="1" source="JOyG7jgRvMzVjS1u_pKQ-44" target="JOyG7jgRvMzVjS1u_pKQ-7">
          <mxGeometry width="50" height="50" relative="1" as="geometry">
            <mxPoint x="1672" y="435" as="sourcePoint" />
            <mxPoint x="1641" y="360" as="targetPoint" />
          </mxGeometry>
        </mxCell>
        <mxCell id="JOyG7jgRvMzVjS1u_pKQ-98" value="" style="endArrow=none;html=1;rounded=0;entryX=0.5;entryY=0;entryDx=0;entryDy=0;" edge="1" parent="1" source="JOyG7jgRvMzVjS1u_pKQ-43" target="JOyG7jgRvMzVjS1u_pKQ-7">
          <mxGeometry width="50" height="50" relative="1" as="geometry">
            <mxPoint x="1691" y="460" as="sourcePoint" />
            <mxPoint x="1660" y="385" as="targetPoint" />
          </mxGeometry>
        </mxCell>
        <mxCell id="JOyG7jgRvMzVjS1u_pKQ-100" value="" style="endArrow=none;html=1;rounded=0;exitX=0.5;exitY=0;exitDx=0;exitDy=0;entryX=1;entryY=0.5;entryDx=0;entryDy=0;" edge="1" parent="1" source="JOyG7jgRvMzVjS1u_pKQ-42" target="JOyG7jgRvMzVjS1u_pKQ-7">
          <mxGeometry width="50" height="50" relative="1" as="geometry">
            <mxPoint x="1952" y="340" as="sourcePoint" />
            <mxPoint x="1832" y="306" as="targetPoint" />
          </mxGeometry>
        </mxCell>
        <mxCell id="JOyG7jgRvMzVjS1u_pKQ-101" value="&lt;font style=&quot;font-size: 18px;&quot;&gt;Send&lt;/font&gt;" style="rhombus;whiteSpace=wrap;html=1;" vertex="1" parent="1">
          <mxGeometry x="750" y="340" width="180" height="50" as="geometry" />
        </mxCell>
        <mxCell id="JOyG7jgRvMzVjS1u_pKQ-102" value="&lt;font style=&quot;font-size: 18px;&quot;&gt;Receive&lt;/font&gt;" style="rhombus;whiteSpace=wrap;html=1;" vertex="1" parent="1">
          <mxGeometry x="415" y="380" width="180" height="50" as="geometry" />
        </mxCell>
        <mxCell id="JOyG7jgRvMzVjS1u_pKQ-103" value="" style="shape=link;html=1;rounded=0;exitX=1;exitY=0.25;exitDx=0;exitDy=0;entryX=0.5;entryY=1;entryDx=0;entryDy=0;" edge="1" parent="1" source="JOyG7jgRvMzVjS1u_pKQ-47" target="JOyG7jgRvMzVjS1u_pKQ-101">
          <mxGeometry width="100" relative="1" as="geometry">
            <mxPoint x="840" y="440" as="sourcePoint" />
            <mxPoint x="940" y="440" as="targetPoint" />
          </mxGeometry>
        </mxCell>
        <mxCell id="JOyG7jgRvMzVjS1u_pKQ-105" value="" style="shape=link;html=1;rounded=0;exitX=0;exitY=0.25;exitDx=0;exitDy=0;" edge="1" parent="1" source="JOyG7jgRvMzVjS1u_pKQ-47" target="JOyG7jgRvMzVjS1u_pKQ-102">
          <mxGeometry width="100" relative="1" as="geometry">
            <mxPoint x="620" y="407" as="sourcePoint" />
            <mxPoint x="722" y="353" as="targetPoint" />
          </mxGeometry>
        </mxCell>
        <mxCell id="JOyG7jgRvMzVjS1u_pKQ-106" value="" style="endArrow=none;html=1;rounded=0;exitX=0.5;exitY=1;exitDx=0;exitDy=0;entryX=0.5;entryY=0;entryDx=0;entryDy=0;" edge="1" parent="1" source="JOyG7jgRvMzVjS1u_pKQ-2" target="JOyG7jgRvMzVjS1u_pKQ-102">
          <mxGeometry width="50" height="50" relative="1" as="geometry">
            <mxPoint x="582.5" y="279" as="sourcePoint" />
            <mxPoint x="507.5" y="360" as="targetPoint" />
          </mxGeometry>
        </mxCell>
        <mxCell id="JOyG7jgRvMzVjS1u_pKQ-107" value="" style="endArrow=none;html=1;rounded=0;exitX=0.25;exitY=1;exitDx=0;exitDy=0;entryX=1;entryY=0;entryDx=0;entryDy=0;" edge="1" parent="1" source="JOyG7jgRvMzVjS1u_pKQ-1" target="JOyG7jgRvMzVjS1u_pKQ-101">
          <mxGeometry width="50" height="50" relative="1" as="geometry">
            <mxPoint x="1010" y="340" as="sourcePoint" />
            <mxPoint x="935" y="421" as="targetPoint" />
          </mxGeometry>
        </mxCell>
        <mxCell id="JOyG7jgRvMzVjS1u_pKQ-109" value="&lt;span style=&quot;font-size: 18px;&quot;&gt;Order&lt;/span&gt;" style="rhombus;whiteSpace=wrap;html=1;" vertex="1" parent="1">
          <mxGeometry x="1330" y="480" width="180" height="50" as="geometry" />
        </mxCell>
        <mxCell id="JOyG7jgRvMzVjS1u_pKQ-110" value="&lt;span style=&quot;font-size: 18px;&quot;&gt;Order&lt;/span&gt;" style="rhombus;whiteSpace=wrap;html=1;" vertex="1" parent="1">
          <mxGeometry x="1400" y="335" width="180" height="50" as="geometry" />
        </mxCell>
        <mxCell id="JOyG7jgRvMzVjS1u_pKQ-112" value="&lt;span style=&quot;font-size: 18px;&quot;&gt;Belong_to&lt;/span&gt;" style="rhombus;whiteSpace=wrap;html=1;" vertex="1" parent="1">
          <mxGeometry x="1140" y="600" width="180" height="50" as="geometry" />
        </mxCell>
        <mxCell id="JOyG7jgRvMzVjS1u_pKQ-116" value="" style="shape=link;html=1;rounded=0;exitX=1;exitY=0.5;exitDx=0;exitDy=0;entryX=0;entryY=0.75;entryDx=0;entryDy=0;" edge="1" parent="1" source="JOyG7jgRvMzVjS1u_pKQ-110" target="JOyG7jgRvMzVjS1u_pKQ-7">
          <mxGeometry width="100" relative="1" as="geometry">
            <mxPoint x="1530" y="280" as="sourcePoint" />
            <mxPoint x="1660" y="270" as="targetPoint" />
          </mxGeometry>
        </mxCell>
        <mxCell id="JOyG7jgRvMzVjS1u_pKQ-117" value="" style="shape=link;html=1;rounded=0;exitX=0.562;exitY=1.036;exitDx=0;exitDy=0;entryX=0.615;entryY=0;entryDx=0;entryDy=0;exitPerimeter=0;entryPerimeter=0;" edge="1" parent="1" source="JOyG7jgRvMzVjS1u_pKQ-112" target="JOyG7jgRvMzVjS1u_pKQ-4">
          <mxGeometry width="100" relative="1" as="geometry">
            <mxPoint x="1340" y="735" as="sourcePoint" />
            <mxPoint x="1490" y="720" as="targetPoint" />
          </mxGeometry>
        </mxCell>
        <mxCell id="JOyG7jgRvMzVjS1u_pKQ-118" value="&lt;span style=&quot;font-size: 18px;&quot;&gt;Print&lt;/span&gt;" style="rhombus;whiteSpace=wrap;html=1;" vertex="1" parent="1">
          <mxGeometry x="780" y="765" width="180" height="50" as="geometry" />
        </mxCell>
        <mxCell id="JOyG7jgRvMzVjS1u_pKQ-120" value="&lt;font style=&quot;font-size: 18px;&quot;&gt;Configure&lt;/font&gt;" style="rhombus;whiteSpace=wrap;html=1;" vertex="1" parent="1">
          <mxGeometry x="157.5" y="525" width="180" height="50" as="geometry" />
        </mxCell>
        <mxCell id="JOyG7jgRvMzVjS1u_pKQ-122" value="" style="endArrow=none;html=1;rounded=0;entryX=1;entryY=0.5;entryDx=0;entryDy=0;exitX=0;exitY=0.75;exitDx=0;exitDy=0;" edge="1" parent="1" source="JOyG7jgRvMzVjS1u_pKQ-4" target="JOyG7jgRvMzVjS1u_pKQ-118">
          <mxGeometry width="50" height="50" relative="1" as="geometry">
            <mxPoint x="1170" y="730" as="sourcePoint" />
            <mxPoint x="1078" y="792" as="targetPoint" />
          </mxGeometry>
        </mxCell>
        <mxCell id="JOyG7jgRvMzVjS1u_pKQ-123" value="" style="endArrow=none;html=1;rounded=0;entryX=1;entryY=0.5;entryDx=0;entryDy=0;exitX=0;exitY=0.5;exitDx=0;exitDy=0;" edge="1" parent="1" source="JOyG7jgRvMzVjS1u_pKQ-118" target="JOyG7jgRvMzVjS1u_pKQ-3">
          <mxGeometry width="50" height="50" relative="1" as="geometry">
            <mxPoint x="830" y="735" as="sourcePoint" />
            <mxPoint x="560" y="740" as="targetPoint" />
          </mxGeometry>
        </mxCell>
        <mxCell id="JOyG7jgRvMzVjS1u_pKQ-124" style="edgeStyle=orthogonalEdgeStyle;rounded=0;orthogonalLoop=1;jettySize=auto;html=1;exitX=0;exitY=0.5;exitDx=0;exitDy=0;entryX=0.064;entryY=0.738;entryDx=0;entryDy=0;entryPerimeter=0;" edge="1" parent="1" source="JOyG7jgRvMzVjS1u_pKQ-28" target="JOyG7jgRvMzVjS1u_pKQ-28">
          <mxGeometry relative="1" as="geometry" />
        </mxCell>
        <mxCell id="JOyG7jgRvMzVjS1u_pKQ-125" value="" style="endArrow=none;html=1;rounded=0;exitX=0.363;exitY=-0.042;exitDx=0;exitDy=0;exitPerimeter=0;entryX=0.5;entryY=1;entryDx=0;entryDy=0;" edge="1" parent="1" source="JOyG7jgRvMzVjS1u_pKQ-3" target="JOyG7jgRvMzVjS1u_pKQ-120">
          <mxGeometry width="50" height="50" relative="1" as="geometry">
            <mxPoint x="330" y="707" as="sourcePoint" />
            <mxPoint x="409" y="650" as="targetPoint" />
          </mxGeometry>
        </mxCell>
        <mxCell id="JOyG7jgRvMzVjS1u_pKQ-126" value="" style="endArrow=none;html=1;rounded=0;entryX=0.25;entryY=1;entryDx=0;entryDy=0;" edge="1" parent="1" source="JOyG7jgRvMzVjS1u_pKQ-120" target="JOyG7jgRvMzVjS1u_pKQ-2">
          <mxGeometry width="50" height="50" relative="1" as="geometry">
            <mxPoint x="250" y="520" as="sourcePoint" />
            <mxPoint x="132.5" y="320" as="targetPoint" />
          </mxGeometry>
        </mxCell>
        <mxCell id="JOyG7jgRvMzVjS1u_pKQ-127" value="" style="endArrow=none;html=1;rounded=0;exitX=0.75;exitY=1;exitDx=0;exitDy=0;entryX=0;entryY=0.5;entryDx=0;entryDy=0;" edge="1" parent="1" source="JOyG7jgRvMzVjS1u_pKQ-1" target="JOyG7jgRvMzVjS1u_pKQ-109">
          <mxGeometry width="50" height="50" relative="1" as="geometry">
            <mxPoint x="1154" y="421" as="sourcePoint" />
            <mxPoint x="1260" y="400" as="targetPoint" />
          </mxGeometry>
        </mxCell>
        <mxCell id="JOyG7jgRvMzVjS1u_pKQ-128" value="" style="endArrow=none;html=1;rounded=0;exitX=0.683;exitY=1.025;exitDx=0;exitDy=0;entryX=0;entryY=0.5;entryDx=0;entryDy=0;exitPerimeter=0;" edge="1" parent="1" source="JOyG7jgRvMzVjS1u_pKQ-1" target="JOyG7jgRvMzVjS1u_pKQ-110">
          <mxGeometry width="50" height="50" relative="1" as="geometry">
            <mxPoint x="1115" y="372.5" as="sourcePoint" />
            <mxPoint x="1275" y="437.5" as="targetPoint" />
          </mxGeometry>
        </mxCell>
        <mxCell id="JOyG7jgRvMzVjS1u_pKQ-129" value="" style="endArrow=none;html=1;rounded=0;entryX=0.5;entryY=0;entryDx=0;entryDy=0;exitX=0.617;exitY=1.058;exitDx=0;exitDy=0;exitPerimeter=0;" edge="1" parent="1" source="JOyG7jgRvMzVjS1u_pKQ-1" target="JOyG7jgRvMzVjS1u_pKQ-112">
          <mxGeometry width="50" height="50" relative="1" as="geometry">
            <mxPoint x="1060" y="330" as="sourcePoint" />
            <mxPoint x="1278" y="608" as="targetPoint" />
          </mxGeometry>
        </mxCell>
        <mxCell id="JOyG7jgRvMzVjS1u_pKQ-130" value="&lt;font style=&quot;font-size: 18px;&quot;&gt;1&lt;/font&gt;" style="text;html=1;align=center;verticalAlign=middle;whiteSpace=wrap;rounded=0;" vertex="1" parent="1">
          <mxGeometry x="495" y="340" width="60" height="30" as="geometry" />
        </mxCell>
        <mxCell id="JOyG7jgRvMzVjS1u_pKQ-131" value="&lt;font style=&quot;font-size: 18px;&quot;&gt;1&lt;/font&gt;" style="text;html=1;align=center;verticalAlign=middle;whiteSpace=wrap;rounded=0;" vertex="1" parent="1">
          <mxGeometry x="810" y="305" width="60" height="30" as="geometry" />
        </mxCell>
        <mxCell id="JOyG7jgRvMzVjS1u_pKQ-132" value="&lt;font style=&quot;font-size: 18px;&quot;&gt;1&lt;/font&gt;" style="text;html=1;align=center;verticalAlign=middle;whiteSpace=wrap;rounded=0;" vertex="1" parent="1">
          <mxGeometry x="1310" y="460" width="60" height="30" as="geometry" />
        </mxCell>
        <mxCell id="JOyG7jgRvMzVjS1u_pKQ-133" value="&lt;font style=&quot;font-size: 18px;&quot;&gt;1&lt;/font&gt;" style="text;html=1;align=center;verticalAlign=middle;whiteSpace=wrap;rounded=0;" vertex="1" parent="1">
          <mxGeometry x="1370" y="330" width="60" height="30" as="geometry" />
        </mxCell>
        <mxCell id="JOyG7jgRvMzVjS1u_pKQ-134" value="&lt;font style=&quot;font-size: 18px;&quot;&gt;1&lt;/font&gt;" style="text;html=1;align=center;verticalAlign=middle;whiteSpace=wrap;rounded=0;" vertex="1" parent="1">
          <mxGeometry x="1170" y="575" width="60" height="30" as="geometry" />
        </mxCell>
        <mxCell id="JOyG7jgRvMzVjS1u_pKQ-135" value="&lt;font style=&quot;font-size: 18px;&quot;&gt;1&lt;/font&gt;" style="text;html=1;align=center;verticalAlign=middle;whiteSpace=wrap;rounded=0;" vertex="1" parent="1">
          <mxGeometry x="740" y="755" width="60" height="30" as="geometry" />
        </mxCell>
        <mxCell id="JOyG7jgRvMzVjS1u_pKQ-136" value="" style="shape=link;html=1;rounded=0;exitX=1;exitY=0.5;exitDx=0;exitDy=0;entryX=0;entryY=0.5;entryDx=0;entryDy=0;" edge="1" parent="1" source="JOyG7jgRvMzVjS1u_pKQ-109" target="JOyG7jgRvMzVjS1u_pKQ-6">
          <mxGeometry width="100" relative="1" as="geometry">
            <mxPoint x="1520" y="362.5" as="sourcePoint" />
            <mxPoint x="1610" y="357.5" as="targetPoint" />
          </mxGeometry>
        </mxCell>
        <mxCell id="JOyG7jgRvMzVjS1u_pKQ-137" value="&lt;span style=&quot;font-size: 18px;&quot;&gt;Consist_of&lt;/span&gt;" style="rhombus;whiteSpace=wrap;html=1;" vertex="1" parent="1">
          <mxGeometry x="1460" y="730" width="180" height="50" as="geometry" />
        </mxCell>
        <mxCell id="JOyG7jgRvMzVjS1u_pKQ-138" value="&lt;font size=&quot;3&quot;&gt;PrintingPage&lt;/font&gt;" style="ellipse;whiteSpace=wrap;html=1;" vertex="1" parent="1">
          <mxGeometry x="1640" y="790" width="140" height="40" as="geometry" />
        </mxCell>
        <mxCell id="JOyG7jgRvMzVjS1u_pKQ-139" value="" style="endArrow=none;html=1;rounded=0;entryX=1;entryY=1;entryDx=0;entryDy=0;exitX=0.214;exitY=0;exitDx=0;exitDy=0;exitPerimeter=0;" edge="1" parent="1" source="JOyG7jgRvMzVjS1u_pKQ-138" target="JOyG7jgRvMzVjS1u_pKQ-137">
          <mxGeometry width="50" height="50" relative="1" as="geometry">
            <mxPoint x="1729" y="820" as="sourcePoint" />
            <mxPoint x="1640" y="771" as="targetPoint" />
          </mxGeometry>
        </mxCell>
        <mxCell id="JOyG7jgRvMzVjS1u_pKQ-140" value="" style="shape=link;html=1;rounded=0;exitX=1;exitY=0.75;exitDx=0;exitDy=0;entryX=0;entryY=0.5;entryDx=0;entryDy=0;" edge="1" parent="1" source="JOyG7jgRvMzVjS1u_pKQ-4" target="JOyG7jgRvMzVjS1u_pKQ-137">
          <mxGeometry width="100" relative="1" as="geometry">
            <mxPoint x="1450" y="590" as="sourcePoint" />
            <mxPoint x="1520" y="715" as="targetPoint" />
          </mxGeometry>
        </mxCell>
        <mxCell id="JOyG7jgRvMzVjS1u_pKQ-141" value="" style="shape=link;html=1;rounded=0;exitX=1;exitY=0.5;exitDx=0;exitDy=0;entryX=0.5;entryY=1;entryDx=0;entryDy=0;" edge="1" parent="1" source="JOyG7jgRvMzVjS1u_pKQ-137" target="JOyG7jgRvMzVjS1u_pKQ-6">
          <mxGeometry width="100" relative="1" as="geometry">
            <mxPoint x="1420" y="705" as="sourcePoint" />
            <mxPoint x="1520" y="660" as="targetPoint" />
          </mxGeometry>
        </mxCell>
        <mxCell id="JOyG7jgRvMzVjS1u_pKQ-142" value="&lt;font style=&quot;font-size: 18px;&quot;&gt;1&lt;/font&gt;" style="text;html=1;align=center;verticalAlign=middle;whiteSpace=wrap;rounded=0;" vertex="1" parent="1">
          <mxGeometry x="1600" y="710" width="60" height="30" as="geometry" />
        </mxCell>
        <mxCell id="JOyG7jgRvMzVjS1u_pKQ-144" value="&lt;font style=&quot;font-size: 18px;&quot;&gt;1&lt;/font&gt;" style="text;html=1;align=center;verticalAlign=middle;whiteSpace=wrap;rounded=0;" vertex="1" parent="1">
          <mxGeometry x="1430" y="725" width="60" height="30" as="geometry" />
        </mxCell>
        <mxCell id="JOyG7jgRvMzVjS1u_pKQ-145" value="&lt;font style=&quot;font-size: 18px;&quot;&gt;N&lt;/font&gt;" style="text;html=1;align=center;verticalAlign=middle;whiteSpace=wrap;rounded=0;" vertex="1" parent="1">
          <mxGeometry x="1500" y="495" width="60" height="30" as="geometry" />
        </mxCell>
        <mxCell id="JOyG7jgRvMzVjS1u_pKQ-147" value="&lt;font style=&quot;font-size: 18px;&quot;&gt;N&lt;/font&gt;" style="text;html=1;align=center;verticalAlign=middle;whiteSpace=wrap;rounded=0;" vertex="1" parent="1">
          <mxGeometry x="1540" y="320" width="60" height="30" as="geometry" />
        </mxCell>
        <mxCell id="JOyG7jgRvMzVjS1u_pKQ-148" value="&lt;font style=&quot;font-size: 18px;&quot;&gt;N&lt;/font&gt;" style="text;html=1;align=center;verticalAlign=middle;whiteSpace=wrap;rounded=0;" vertex="1" parent="1">
          <mxGeometry x="1240" y="640" width="60" height="30" as="geometry" />
        </mxCell>
        <mxCell id="JOyG7jgRvMzVjS1u_pKQ-149" value="&lt;font style=&quot;font-size: 18px;&quot;&gt;N&lt;/font&gt;" style="text;html=1;align=center;verticalAlign=middle;whiteSpace=wrap;rounded=0;" vertex="1" parent="1">
          <mxGeometry x="930" y="755" width="60" height="30" as="geometry" />
        </mxCell>
        <mxCell id="JOyG7jgRvMzVjS1u_pKQ-150" value="&lt;font style=&quot;font-size: 18px;&quot;&gt;N&lt;/font&gt;" style="text;html=1;align=center;verticalAlign=middle;whiteSpace=wrap;rounded=0;" vertex="1" parent="1">
          <mxGeometry x="830" y="390" width="60" height="30" as="geometry" />
        </mxCell>
        <mxCell id="JOyG7jgRvMzVjS1u_pKQ-151" value="&lt;font style=&quot;font-size: 18px;&quot;&gt;N&lt;/font&gt;" style="text;html=1;align=center;verticalAlign=middle;whiteSpace=wrap;rounded=0;" vertex="1" parent="1">
          <mxGeometry x="510" y="420" width="60" height="30" as="geometry" />
        </mxCell>
        <mxCell id="JOyG7jgRvMzVjS1u_pKQ-152" value="&lt;font style=&quot;font-size: 18px;&quot;&gt;N&lt;/font&gt;" style="text;html=1;align=center;verticalAlign=middle;whiteSpace=wrap;rounded=0;" vertex="1" parent="1">
          <mxGeometry x="200" y="575" width="60" height="30" as="geometry" />
        </mxCell>
        <mxCell id="JOyG7jgRvMzVjS1u_pKQ-153" value="&lt;font style=&quot;font-size: 18px;&quot;&gt;M&lt;/font&gt;" style="text;html=1;align=center;verticalAlign=middle;whiteSpace=wrap;rounded=0;" vertex="1" parent="1">
          <mxGeometry x="200" y="495" width="60" height="30" as="geometry" />
        </mxCell>
      </root>
    </mxGraphModel>
  </diagram>
</mxfile>
